<mxfile host="app.diagrams.net" modified="2023-04-18T05:19:14.941Z" agent="Mozilla/5.0 (Macintosh; Intel Mac OS X 10_15_7) AppleWebKit/537.36 (KHTML, like Gecko) Chrome/111.0.0.0 Safari/537.36" etag="EQMTx0rAfw1Cww7XHBTM" version="21.1.2" type="github">
  <diagram name="第 1 页" id="PeRLFdzWT5dxA26AEwqp">
    <mxGraphModel dx="1368" dy="1954" grid="1" gridSize="10" guides="1" tooltips="1" connect="1" arrows="1" fold="1" page="1" pageScale="1" pageWidth="827" pageHeight="1169" math="0" shadow="0">
      <root>
        <mxCell id="0" />
        <mxCell id="1" parent="0" />
        <mxCell id="ShR6MDh2qBIL2Z2kv4CR-1" value="评论" style="ellipse;whiteSpace=wrap;html=1;" vertex="1" parent="1">
          <mxGeometry x="150" y="390" width="80" height="60" as="geometry" />
        </mxCell>
        <mxCell id="ShR6MDh2qBIL2Z2kv4CR-2" value="发布帖子" style="ellipse;whiteSpace=wrap;html=1;" vertex="1" parent="1">
          <mxGeometry x="150" y="320" width="80" height="60" as="geometry" />
        </mxCell>
        <mxCell id="ShR6MDh2qBIL2Z2kv4CR-3" value="管理个人信息" style="ellipse;whiteSpace=wrap;html=1;" vertex="1" parent="1">
          <mxGeometry x="160" y="140" width="80" height="60" as="geometry" />
        </mxCell>
        <mxCell id="ShR6MDh2qBIL2Z2kv4CR-4" value="登录" style="ellipse;whiteSpace=wrap;html=1;" vertex="1" parent="1">
          <mxGeometry x="240" y="280" width="80" height="60" as="geometry" />
        </mxCell>
        <mxCell id="ShR6MDh2qBIL2Z2kv4CR-5" value="注册" style="ellipse;whiteSpace=wrap;html=1;" vertex="1" parent="1">
          <mxGeometry x="240" y="210" width="80" height="60" as="geometry" />
        </mxCell>
        <mxCell id="ShR6MDh2qBIL2Z2kv4CR-6" value="聊天" style="ellipse;whiteSpace=wrap;html=1;" vertex="1" parent="1">
          <mxGeometry x="150" y="460" width="80" height="60" as="geometry" />
        </mxCell>
        <mxCell id="ShR6MDh2qBIL2Z2kv4CR-9" value="入驻系统" style="ellipse;whiteSpace=wrap;html=1;" vertex="1" parent="1">
          <mxGeometry x="330" y="60" width="80" height="60" as="geometry" />
        </mxCell>
        <mxCell id="ShR6MDh2qBIL2Z2kv4CR-10" value="处理用户的消息" style="ellipse;whiteSpace=wrap;html=1;" vertex="1" parent="1">
          <mxGeometry x="333" y="140" width="80" height="60" as="geometry" />
        </mxCell>
        <mxCell id="ShR6MDh2qBIL2Z2kv4CR-11" value="管理用户" style="ellipse;whiteSpace=wrap;html=1;" vertex="1" parent="1">
          <mxGeometry x="320" y="330" width="80" height="60" as="geometry" />
        </mxCell>
        <mxCell id="ShR6MDh2qBIL2Z2kv4CR-12" value="管理商家" style="ellipse;whiteSpace=wrap;html=1;" vertex="1" parent="1">
          <mxGeometry x="320" y="410" width="80" height="60" as="geometry" />
        </mxCell>
        <mxCell id="ShR6MDh2qBIL2Z2kv4CR-13" value="用户" style="shape=umlActor;verticalLabelPosition=bottom;verticalAlign=top;html=1;outlineConnect=0;" vertex="1" parent="1">
          <mxGeometry x="30" y="250" width="30" height="60" as="geometry" />
        </mxCell>
        <mxCell id="ShR6MDh2qBIL2Z2kv4CR-38" style="rounded=0;orthogonalLoop=1;jettySize=auto;html=1;exitX=0;exitY=0.3333333333333333;exitDx=0;exitDy=0;exitPerimeter=0;" edge="1" parent="1" source="ShR6MDh2qBIL2Z2kv4CR-16" target="ShR6MDh2qBIL2Z2kv4CR-5">
          <mxGeometry relative="1" as="geometry" />
        </mxCell>
        <mxCell id="ShR6MDh2qBIL2Z2kv4CR-39" style="rounded=0;orthogonalLoop=1;jettySize=auto;html=1;exitX=0;exitY=0.3333333333333333;exitDx=0;exitDy=0;exitPerimeter=0;entryX=1;entryY=0.5;entryDx=0;entryDy=0;" edge="1" parent="1" source="ShR6MDh2qBIL2Z2kv4CR-16" target="ShR6MDh2qBIL2Z2kv4CR-4">
          <mxGeometry relative="1" as="geometry" />
        </mxCell>
        <mxCell id="ShR6MDh2qBIL2Z2kv4CR-40" style="rounded=0;orthogonalLoop=1;jettySize=auto;html=1;exitX=0;exitY=0.3333333333333333;exitDx=0;exitDy=0;exitPerimeter=0;entryX=1;entryY=0.5;entryDx=0;entryDy=0;" edge="1" parent="1" source="ShR6MDh2qBIL2Z2kv4CR-16" target="ShR6MDh2qBIL2Z2kv4CR-9">
          <mxGeometry relative="1" as="geometry" />
        </mxCell>
        <mxCell id="ShR6MDh2qBIL2Z2kv4CR-41" style="rounded=0;orthogonalLoop=1;jettySize=auto;html=1;exitX=0;exitY=0.3333333333333333;exitDx=0;exitDy=0;exitPerimeter=0;entryX=1;entryY=0.5;entryDx=0;entryDy=0;" edge="1" parent="1" source="ShR6MDh2qBIL2Z2kv4CR-16" target="ShR6MDh2qBIL2Z2kv4CR-10">
          <mxGeometry relative="1" as="geometry" />
        </mxCell>
        <mxCell id="ShR6MDh2qBIL2Z2kv4CR-16" value="进驻专家" style="shape=umlActor;verticalLabelPosition=bottom;verticalAlign=top;html=1;outlineConnect=0;" vertex="1" parent="1">
          <mxGeometry x="525" y="230" width="30" height="60" as="geometry" />
        </mxCell>
        <mxCell id="ShR6MDh2qBIL2Z2kv4CR-37" style="rounded=0;orthogonalLoop=1;jettySize=auto;html=1;exitX=0;exitY=0.3333333333333333;exitDx=0;exitDy=0;exitPerimeter=0;entryX=1;entryY=0.5;entryDx=0;entryDy=0;" edge="1" parent="1" source="ShR6MDh2qBIL2Z2kv4CR-17" target="ShR6MDh2qBIL2Z2kv4CR-4">
          <mxGeometry relative="1" as="geometry">
            <mxPoint x="470" y="210" as="targetPoint" />
          </mxGeometry>
        </mxCell>
        <mxCell id="ShR6MDh2qBIL2Z2kv4CR-17" value="商家" style="shape=umlActor;verticalLabelPosition=bottom;verticalAlign=top;html=1;outlineConnect=0;" vertex="1" parent="1">
          <mxGeometry x="525" y="110" width="30" height="60" as="geometry" />
        </mxCell>
        <mxCell id="ShR6MDh2qBIL2Z2kv4CR-42" style="rounded=0;orthogonalLoop=1;jettySize=auto;html=1;exitX=0;exitY=0.3333333333333333;exitDx=0;exitDy=0;exitPerimeter=0;entryX=1;entryY=0.5;entryDx=0;entryDy=0;" edge="1" parent="1" source="ShR6MDh2qBIL2Z2kv4CR-23" target="ShR6MDh2qBIL2Z2kv4CR-5">
          <mxGeometry relative="1" as="geometry" />
        </mxCell>
        <mxCell id="ShR6MDh2qBIL2Z2kv4CR-43" style="rounded=0;orthogonalLoop=1;jettySize=auto;html=1;exitX=0;exitY=0.3333333333333333;exitDx=0;exitDy=0;exitPerimeter=0;entryX=1;entryY=0.5;entryDx=0;entryDy=0;" edge="1" parent="1" source="ShR6MDh2qBIL2Z2kv4CR-23" target="ShR6MDh2qBIL2Z2kv4CR-4">
          <mxGeometry relative="1" as="geometry" />
        </mxCell>
        <mxCell id="ShR6MDh2qBIL2Z2kv4CR-44" style="rounded=0;orthogonalLoop=1;jettySize=auto;html=1;exitX=0;exitY=0.3333333333333333;exitDx=0;exitDy=0;exitPerimeter=0;entryX=1;entryY=0.5;entryDx=0;entryDy=0;" edge="1" parent="1" source="ShR6MDh2qBIL2Z2kv4CR-23" target="ShR6MDh2qBIL2Z2kv4CR-11">
          <mxGeometry relative="1" as="geometry" />
        </mxCell>
        <mxCell id="ShR6MDh2qBIL2Z2kv4CR-45" style="rounded=0;orthogonalLoop=1;jettySize=auto;html=1;exitX=0;exitY=0.3333333333333333;exitDx=0;exitDy=0;exitPerimeter=0;entryX=1;entryY=0.5;entryDx=0;entryDy=0;" edge="1" parent="1" source="ShR6MDh2qBIL2Z2kv4CR-23" target="ShR6MDh2qBIL2Z2kv4CR-12">
          <mxGeometry relative="1" as="geometry" />
        </mxCell>
        <mxCell id="ShR6MDh2qBIL2Z2kv4CR-23" value="管理员" style="shape=umlActor;verticalLabelPosition=bottom;verticalAlign=top;html=1;outlineConnect=0;" vertex="1" parent="1">
          <mxGeometry x="525" y="350" width="30" height="60" as="geometry" />
        </mxCell>
        <mxCell id="ShR6MDh2qBIL2Z2kv4CR-26" value="" style="endArrow=classic;html=1;rounded=0;exitX=1;exitY=0.3333333333333333;exitDx=0;exitDy=0;exitPerimeter=0;entryX=0;entryY=0.5;entryDx=0;entryDy=0;" edge="1" parent="1" source="ShR6MDh2qBIL2Z2kv4CR-13" target="ShR6MDh2qBIL2Z2kv4CR-5">
          <mxGeometry width="50" height="50" relative="1" as="geometry">
            <mxPoint x="40" y="200" as="sourcePoint" />
            <mxPoint x="90" y="150" as="targetPoint" />
          </mxGeometry>
        </mxCell>
        <mxCell id="ShR6MDh2qBIL2Z2kv4CR-27" value="" style="endArrow=classic;html=1;rounded=0;exitX=1;exitY=0.3333333333333333;exitDx=0;exitDy=0;exitPerimeter=0;entryX=0;entryY=0.5;entryDx=0;entryDy=0;" edge="1" parent="1" source="ShR6MDh2qBIL2Z2kv4CR-13" target="ShR6MDh2qBIL2Z2kv4CR-4">
          <mxGeometry width="50" height="50" relative="1" as="geometry">
            <mxPoint x="90" y="310" as="sourcePoint" />
            <mxPoint x="140" y="260" as="targetPoint" />
          </mxGeometry>
        </mxCell>
        <mxCell id="ShR6MDh2qBIL2Z2kv4CR-28" value="" style="endArrow=classic;html=1;rounded=0;exitX=1;exitY=0.3333333333333333;exitDx=0;exitDy=0;exitPerimeter=0;entryX=0;entryY=0.5;entryDx=0;entryDy=0;" edge="1" parent="1" source="ShR6MDh2qBIL2Z2kv4CR-13" target="ShR6MDh2qBIL2Z2kv4CR-3">
          <mxGeometry width="50" height="50" relative="1" as="geometry">
            <mxPoint x="80" y="340" as="sourcePoint" />
            <mxPoint x="130" y="290" as="targetPoint" />
          </mxGeometry>
        </mxCell>
        <mxCell id="ShR6MDh2qBIL2Z2kv4CR-29" value="" style="endArrow=classic;html=1;rounded=0;exitX=1;exitY=0.3333333333333333;exitDx=0;exitDy=0;exitPerimeter=0;entryX=0;entryY=0.5;entryDx=0;entryDy=0;" edge="1" parent="1" source="ShR6MDh2qBIL2Z2kv4CR-13" target="ShR6MDh2qBIL2Z2kv4CR-2">
          <mxGeometry width="50" height="50" relative="1" as="geometry">
            <mxPoint x="50" y="420" as="sourcePoint" />
            <mxPoint x="100" y="370" as="targetPoint" />
          </mxGeometry>
        </mxCell>
        <mxCell id="ShR6MDh2qBIL2Z2kv4CR-30" value="" style="endArrow=classic;html=1;rounded=0;entryX=-0.018;entryY=0.417;entryDx=0;entryDy=0;entryPerimeter=0;" edge="1" parent="1" target="ShR6MDh2qBIL2Z2kv4CR-1">
          <mxGeometry width="50" height="50" relative="1" as="geometry">
            <mxPoint x="60" y="270" as="sourcePoint" />
            <mxPoint x="90" y="360" as="targetPoint" />
          </mxGeometry>
        </mxCell>
        <mxCell id="ShR6MDh2qBIL2Z2kv4CR-31" value="" style="endArrow=classic;html=1;rounded=0;entryX=0;entryY=0.5;entryDx=0;entryDy=0;" edge="1" parent="1" target="ShR6MDh2qBIL2Z2kv4CR-6">
          <mxGeometry width="50" height="50" relative="1" as="geometry">
            <mxPoint x="60" y="270" as="sourcePoint" />
            <mxPoint x="140" y="430" as="targetPoint" />
          </mxGeometry>
        </mxCell>
        <mxCell id="ShR6MDh2qBIL2Z2kv4CR-32" value="创建订单" style="ellipse;whiteSpace=wrap;html=1;" vertex="1" parent="1">
          <mxGeometry x="333" y="-20" width="80" height="60" as="geometry" />
        </mxCell>
        <mxCell id="ShR6MDh2qBIL2Z2kv4CR-33" value="" style="endArrow=classic;html=1;rounded=0;exitX=0;exitY=0.3333333333333333;exitDx=0;exitDy=0;exitPerimeter=0;entryX=1;entryY=0.5;entryDx=0;entryDy=0;" edge="1" parent="1" source="ShR6MDh2qBIL2Z2kv4CR-17" target="ShR6MDh2qBIL2Z2kv4CR-32">
          <mxGeometry width="50" height="50" relative="1" as="geometry">
            <mxPoint x="470" y="110" as="sourcePoint" />
            <mxPoint x="520" y="60" as="targetPoint" />
          </mxGeometry>
        </mxCell>
        <mxCell id="ShR6MDh2qBIL2Z2kv4CR-34" value="" style="endArrow=classic;html=1;rounded=0;exitX=0;exitY=0.3333333333333333;exitDx=0;exitDy=0;exitPerimeter=0;entryX=1;entryY=0.5;entryDx=0;entryDy=0;" edge="1" parent="1" source="ShR6MDh2qBIL2Z2kv4CR-17" target="ShR6MDh2qBIL2Z2kv4CR-9">
          <mxGeometry width="50" height="50" relative="1" as="geometry">
            <mxPoint x="440" y="190" as="sourcePoint" />
            <mxPoint x="490" y="140" as="targetPoint" />
          </mxGeometry>
        </mxCell>
        <mxCell id="ShR6MDh2qBIL2Z2kv4CR-35" value="" style="endArrow=classic;html=1;rounded=0;exitX=0;exitY=0.3333333333333333;exitDx=0;exitDy=0;exitPerimeter=0;entryX=1;entryY=0.5;entryDx=0;entryDy=0;" edge="1" parent="1" source="ShR6MDh2qBIL2Z2kv4CR-17" target="ShR6MDh2qBIL2Z2kv4CR-10">
          <mxGeometry width="50" height="50" relative="1" as="geometry">
            <mxPoint x="400" y="270" as="sourcePoint" />
            <mxPoint x="450" y="220" as="targetPoint" />
          </mxGeometry>
        </mxCell>
        <mxCell id="ShR6MDh2qBIL2Z2kv4CR-36" value="" style="endArrow=classic;html=1;rounded=0;exitX=0;exitY=0.3333333333333333;exitDx=0;exitDy=0;exitPerimeter=0;entryX=1;entryY=0.5;entryDx=0;entryDy=0;" edge="1" parent="1" source="ShR6MDh2qBIL2Z2kv4CR-17" target="ShR6MDh2qBIL2Z2kv4CR-5">
          <mxGeometry width="50" height="50" relative="1" as="geometry">
            <mxPoint x="420" y="270" as="sourcePoint" />
            <mxPoint x="470" y="220" as="targetPoint" />
          </mxGeometry>
        </mxCell>
        <mxCell id="ShR6MDh2qBIL2Z2kv4CR-47" value="" style="rounded=0;whiteSpace=wrap;html=1;fillColor=none;" vertex="1" parent="1">
          <mxGeometry x="110" y="-50" width="360" height="600" as="geometry" />
        </mxCell>
      </root>
    </mxGraphModel>
  </diagram>
</mxfile>
